<svg xmlns="http://www.w3.org/2000/svg" width="1996" height="1996" viewBox="0 0 1996 1996" version="1.1">
	<rect x="0" y="0" width="100%" height="100%" fill="none" />
	<path d="M 1046.500 357.793 C 1041.036 359.671, 1025.346 368.164, 997 384.587 C 974.175 397.812, 944.250 415.076, 930.500 422.954 C 916.750 430.831, 894.025 444.041, 880 452.310 C 840.582 475.549, 819.718 487.641, 805 495.775 C 789.786 504.184, 779.890 509.875, 731.500 538.050 C 712.800 548.937, 696.901 557.993, 696.168 558.173 C 695.078 558.440, 694.781 550.862, 694.531 516.500 C 694.175 467.507, 694.146 467.336, 684.466 457.422 C 673.782 446.478, 670.896 446.099, 598.500 446.109 C 504.376 446.123, 426.533 447.573, 417.500 449.481 C 398.463 453.501, 380.062 462.241, 364.667 474.574 C 329.417 502.814, 315.725 540.056, 321.519 591.930 C 323.724 611.664, 326.021 617.819, 339.568 640.291 C 345.750 650.544, 346.028 648.449, 336.949 660 C 327.246 672.344, 325.738 674.519, 323.425 679.500 C 317.120 693.079, 312.591 721.128, 313.414 741.500 C 314.858 777.263, 318.910 790.216, 337.031 817 C 346.488 830.977, 371.692 851.372, 389.085 859.121 C 406.202 866.746, 410.581 868.073, 420.750 868.712 L 430 869.294 430.041 874.897 C 430.255 904.425, 428.337 1121.687, 426.993 1220 C 426.441 1260.425, 425.938 1316.274, 425.875 1344.109 L 425.761 1394.718 428.505 1400.832 C 431.802 1408.179, 438.296 1414.635, 450.134 1422.336 C 461.402 1429.665, 515.463 1460.607, 591 1502.960 C 599.525 1507.740, 615.950 1517.073, 627.500 1523.700 C 648.024 1535.475, 750.213 1593.738, 817 1631.742 C 835.425 1642.227, 884.475 1670.247, 926 1694.010 C 1034.271 1755.968, 1032.547 1755.241, 1054.075 1748.028 C 1067.769 1743.440, 1071.778 1741.201, 1221.500 1654.494 C 1267.972 1627.581, 1289.094 1615.363, 1323.500 1595.491 C 1407.956 1546.711, 1443.282 1526.331, 1472 1509.821 C 1584.028 1445.417, 1594.065 1439.558, 1632.878 1415.914 C 1661.576 1398.432, 1666.388 1393.528, 1668.986 1379.118 C 1671.730 1363.890, 1665.206 1352.541, 1646.506 1340.014 C 1626.334 1326.502, 1552.555 1283.388, 1474 1239.207 C 1467.675 1235.650, 1459.965 1231.274, 1456.868 1229.482 C 1427.890 1212.727, 1420.270 1213.383, 1382.594 1235.885 C 1365.594 1246.038, 1359.595 1249.513, 1303 1281.999 C 1276.875 1296.994, 1250.550 1312.194, 1244.500 1315.776 C 1233.080 1322.537, 1218.885 1330.724, 1156.500 1366.530 C 1136.150 1378.209, 1112.750 1391.697, 1104.500 1396.502 C 1068.146 1417.675, 1044.333 1431.119, 1042.252 1431.646 C 1040.587 1432.068, 1033.858 1428.748, 1016.337 1418.858 C 1003.320 1411.511, 991.057 1404.592, 989.085 1403.483 C 978.136 1397.323, 917.802 1362.933, 828.500 1311.950 C 772.950 1280.237, 724.062 1252.411, 719.859 1250.114 C 713.167 1246.457, 712.159 1245.539, 711.740 1242.719 C 711.100 1238.403, 712.023 964.034, 712.847 913.576 L 713.500 873.651 733 862.510 C 743.725 856.382, 760.825 846.517, 771 840.588 C 781.175 834.658, 801.650 822.811, 816.500 814.260 C 831.350 805.709, 855.656 791.631, 870.514 782.976 C 885.371 774.321, 925.646 751.148, 960.014 731.481 C 994.381 711.814, 1028.800 692.027, 1036.500 687.511 C 1044.200 682.995, 1052.862 677.995, 1055.750 676.400 L 1061 673.500 1069.250 677.948 C 1073.787 680.394, 1086.725 687.629, 1098 694.026 C 1109.275 700.422, 1136.275 715.707, 1158 727.992 C 1179.725 740.277, 1204.025 754.130, 1212 758.775 C 1252.614 782.432, 1400.801 866.959, 1409.394 871.370 C 1418.717 876.155, 1419.728 876.449, 1426.894 876.460 C 1437.677 876.476, 1441.521 874.849, 1469.695 858.345 C 1499.527 840.870, 1523.215 827.168, 1564.500 803.507 C 1617.764 772.979, 1646.900 755.439, 1658.812 746.729 C 1677.715 732.908, 1678.257 706.503, 1659.982 689.671 C 1654.826 684.921, 1594.309 649.486, 1543.500 621.465 C 1535.800 617.219, 1507.900 601.359, 1481.500 586.221 C 1455.100 571.083, 1424.050 553.316, 1412.500 546.740 C 1400.950 540.163, 1383.175 529.958, 1373 524.062 C 1362.825 518.166, 1350.450 511.059, 1345.500 508.268 C 1304.773 485.307, 1258.763 459.199, 1245.500 451.523 C 1229.589 442.315, 1179.511 413.794, 1148 395.994 C 1138.925 390.868, 1124.750 382.747, 1116.500 377.948 C 1075.308 353.986, 1065.656 351.207, 1046.500 357.793 M 1051.458 396.090 C 1046.531 398.889, 1040.925 402.215, 1039 403.481 C 1037.075 404.747, 1033.302 406.982, 1030.616 408.447 C 1027.930 409.912, 1023.426 412.585, 1020.608 414.388 C 1017.790 416.190, 1013.463 418.809, 1010.992 420.207 C 1005.355 423.397, 964.955 446.837, 960.675 449.403 C 958.929 450.449, 955.220 452.519, 952.432 454.003 C 946.853 456.974, 909.975 478.170, 904.157 481.751 C 902.146 482.989, 899.150 484.673, 897.500 485.494 C 895.850 486.315, 892.700 488.115, 890.500 489.494 C 888.300 490.873, 885.150 492.674, 883.500 493.496 C 881.850 494.318, 879.150 495.829, 877.500 496.854 C 873.308 499.457, 867.134 503.003, 863 505.183 C 859.410 507.076, 858.063 507.864, 852 511.617 C 850.075 512.808, 846.250 515.022, 843.500 516.537 C 836.247 520.532, 833.218 522.264, 811.291 534.952 C 800.406 541.250, 789.852 547.325, 787.838 548.452 C 785.824 549.578, 778.624 553.689, 771.838 557.588 C 765.052 561.486, 758.825 564.969, 758 565.329 C 757.175 565.688, 752.496 568.461, 747.602 571.491 C 742.708 574.521, 738.534 577, 738.328 577 C 737.884 577, 691.626 603.458, 684.782 607.627 C 676.410 612.726, 676.922 604.252, 677.230 732.400 C 677.491 841.327, 677.564 845.208, 679.375 846.532 C 681.593 848.154, 685.110 846.554, 707.210 833.869 C 714.750 829.541, 721.239 826, 721.631 826 C 722.022 826, 723.053 825.381, 723.921 824.624 C 724.790 823.867, 736.300 817.042, 749.500 809.457 C 762.700 801.872, 779.439 792.254, 786.697 788.083 C 801.227 779.734, 832.436 761.674, 846.500 753.476 C 851.450 750.590, 865.625 742.498, 878 735.492 C 890.375 728.487, 902.075 721.718, 904 720.451 C 905.925 719.184, 909.525 717.056, 912 715.722 C 914.475 714.388, 922.800 709.555, 930.500 704.981 C 945.365 696.150, 948.051 694.587, 958.126 688.904 C 967.115 683.834, 996.904 666.444, 1000.500 664.167 C 1002.150 663.122, 1006.200 660.773, 1009.500 658.947 C 1012.800 657.121, 1024.275 650.376, 1035 643.958 C 1058.399 629.956, 1060.964 628.868, 1064.782 631.323 C 1069.594 634.418, 1277.027 752.746, 1301.500 766.357 C 1305.900 768.804, 1334.843 785.249, 1365.817 802.901 C 1396.792 820.553, 1423.232 835.271, 1424.574 835.608 C 1428.442 836.579, 1433.480 835.194, 1438.727 831.717 C 1446.055 826.861, 1447.367 826.046, 1449 825.331 C 1449.825 824.970, 1451.850 823.737, 1453.500 822.591 C 1456.647 820.406, 1472.130 811, 1472.580 811 C 1472.724 811, 1476.469 808.750, 1480.903 806 C 1485.337 803.250, 1489.423 801, 1489.982 801 C 1490.542 801, 1491 800.656, 1491 800.236 C 1491 799.816, 1492.688 798.690, 1494.750 797.734 C 1496.813 796.778, 1502.352 793.614, 1507.060 790.702 C 1511.768 787.791, 1517.168 784.630, 1519.060 783.679 C 1520.952 782.728, 1526.550 779.447, 1531.500 776.388 C 1536.450 773.329, 1543.390 769.254, 1546.922 767.333 C 1550.455 765.413, 1555.630 762.389, 1558.422 760.614 C 1561.215 758.839, 1569.125 754.308, 1576 750.545 C 1582.875 746.782, 1590.075 742.733, 1592 741.547 C 1593.925 740.361, 1597.075 738.608, 1599 737.652 C 1605.673 734.339, 1612.968 730.003, 1622.750 723.537 C 1627.482 720.410, 1628.541 716.624, 1624.999 715.500 C 1623.898 715.150, 1622.552 714.031, 1622.007 713.012 C 1621.461 711.994, 1619.437 710.639, 1617.508 710.003 C 1615.578 709.366, 1614 708.482, 1614 708.039 C 1614 707.596, 1613.213 706.937, 1612.250 706.575 C 1610.200 705.804, 1606.173 703.497, 1600.270 699.712 C 1597.943 698.221, 1595.581 697, 1595.020 697 C 1594.459 697, 1594 696.657, 1594 696.237 C 1594 695.818, 1593.123 695.030, 1592.052 694.487 C 1590.980 693.944, 1585.027 690.397, 1578.822 686.604 C 1572.618 682.812, 1565.991 678.838, 1564.096 677.773 C 1562.201 676.709, 1558.366 674.392, 1555.575 672.624 C 1552.784 670.857, 1548.224 668.235, 1545.442 666.796 C 1538.026 662.962, 1529.843 658.295, 1523.462 654.259 C 1522.383 653.576, 1519.399 651.900, 1516.831 650.533 C 1514.262 649.166, 1505.937 644.361, 1498.331 639.855 C 1482.775 630.639, 1468.647 622.510, 1459 617.224 C 1455.425 615.265, 1448.958 611.713, 1444.628 609.331 C 1440.299 606.949, 1436.595 605, 1436.398 605 C 1436.200 605, 1433.577 603.425, 1430.567 601.500 C 1427.558 599.575, 1424.854 598, 1424.558 598 C 1424.262 598, 1420.885 595.990, 1417.052 593.533 C 1413.219 591.076, 1402.527 584.736, 1393.292 579.443 C 1357.839 559.123, 1335.745 546.433, 1332.884 544.745 C 1328.410 542.105, 1311.647 532.496, 1291.500 521.021 C 1281.600 515.383, 1247.850 496.111, 1216.500 478.196 C 1185.150 460.280, 1155.675 443.529, 1151 440.970 C 1146.325 438.411, 1133.725 431.259, 1123 425.077 C 1112.275 418.894, 1098.550 411.003, 1092.500 407.539 C 1086.450 404.076, 1079.700 400.210, 1077.500 398.947 C 1066.431 392.595, 1063.372 391.035, 1061.958 391.018 C 1061.110 391.008, 1056.385 393.290, 1051.458 396.090 M 447.500 483.142 C 429.218 483.676, 424.244 484.150, 418.067 485.947 C 374.803 498.529, 351.440 534.760, 356.128 582 C 359.134 612.289, 373.145 633.792, 397 644.726 C 407.047 649.331, 407.329 649.487, 407.724 650.673 C 407.913 651.239, 405.915 652.511, 403.284 653.499 C 374.067 664.471, 357.675 683.187, 350.296 714 C 347.221 726.842, 347.767 753.691, 351.363 766.440 C 360.737 799.678, 384.128 822.352, 417.637 830.683 C 423.928 832.247, 433.753 832.370, 535.500 832.163 C 596.550 832.039, 648.380 831.951, 650.679 831.968 C 658.734 832.029, 658.036 849.438, 657.753 655.676 L 657.500 482.500 563.500 482.500 C 511.800 482.500, 459.600 482.789, 447.500 483.142 M 484.500 557.872 C 478.187 558.369, 475.627 559.069, 472.357 561.195 C 453.848 573.233, 455.496 608.230, 475 617.329 C 479.259 619.316, 481.441 619.448, 515.674 619.790 C 540.939 620.043, 552.473 619.817, 553.924 619.041 C 555.952 617.955, 556 617.260, 556 589.087 C 556 563.484, 555.814 560.091, 554.347 558.872 C 552.539 557.371, 500.370 556.624, 484.500 557.872 M 480 690.879 C 465.450 691.739, 460.571 694.707, 455.143 706 C 451.139 714.333, 451.243 729.940, 455.359 738.323 C 458.499 744.717, 463.886 749.385, 469.904 750.927 C 471.882 751.434, 491.371 751.995, 513.213 752.174 C 548.457 752.463, 553.105 752.321, 554.517 750.910 C 556.621 748.808, 556.835 694.365, 554.747 692.380 C 553.289 690.994, 497.135 689.867, 480 690.879 M 1041.500 746.402 C 1032.532 748.822, 1028.729 750.639, 1012 760.490 C 1002.925 765.835, 979.975 779.233, 961 790.265 C 838.572 861.442, 827.694 867.706, 807.698 878.551 C 793.013 886.515, 787.866 891.047, 783.906 899.500 L 781.096 905.500 779.954 959.500 C 778.854 1011.492, 779.306 1116.888, 780.886 1177 L 781.556 1202.500 784.376 1207.638 C 788.692 1215.502, 794.229 1220.156, 809.500 1228.757 C 829.218 1239.862, 841.979 1247.185, 915 1289.296 C 1003.389 1340.270, 1033.555 1357.106, 1040.621 1359.407 C 1055.457 1364.239, 1067.638 1359.213, 1130.500 1322.327 C 1137.100 1318.455, 1158.025 1306.382, 1177 1295.499 C 1195.975 1284.616, 1219.375 1271.113, 1229 1265.493 C 1238.625 1259.872, 1255.725 1249.975, 1267 1243.500 C 1302.621 1223.041, 1315.878 1212.982, 1321.039 1202.500 C 1323.382 1197.741, 1323.494 1196.682, 1323.365 1180.500 C 1323.291 1171.150, 1323.046 1105.625, 1322.821 1034.888 L 1322.411 906.276 1319.169 899.691 C 1314.730 890.674, 1310.460 887.257, 1288.391 875.055 C 1278.001 869.311, 1262.975 860.795, 1255 856.132 C 1241.249 848.091, 1184.773 815.304, 1173 808.526 C 1169.975 806.784, 1153.550 797.234, 1136.500 787.304 C 1063.447 744.755, 1057.341 742.126, 1041.500 746.402 M 1024 796.978 C 1000.837 810.432, 970.902 827.722, 962 832.789 C 955.732 836.356, 941.699 844.635, 932.500 850.193 C 927.550 853.184, 920.350 857.356, 916.500 859.465 C 909.288 863.416, 904.713 865.941, 899.500 868.850 C 894.536 871.619, 873.890 883.426, 872.135 884.500 C 864.253 889.321, 844.604 900.871, 841.028 902.785 C 838.569 904.102, 835.419 905.950, 834.028 906.892 C 832.638 907.835, 829.348 909.707, 826.719 911.053 C 824.089 912.399, 820.714 914.470, 819.219 915.655 L 816.500 917.810 816.232 1050.966 C 815.929 1201.502, 815.189 1188.369, 824.269 1193.634 C 827.146 1195.302, 840.975 1203.353, 855 1211.525 C 887.597 1230.519, 895.461 1235.076, 901 1238.180 C 917.389 1247.364, 930.135 1254.635, 941 1261 C 947.875 1265.027, 966.550 1275.836, 982.500 1285.021 C 998.450 1294.206, 1017.753 1305.409, 1025.395 1309.917 C 1045.738 1321.917, 1048.595 1323.245, 1052.336 1322.441 C 1055.885 1321.678, 1065.423 1316.541, 1087.500 1303.506 C 1095.750 1298.635, 1106.550 1292.335, 1111.500 1289.506 C 1116.450 1286.677, 1123.425 1282.562, 1127 1280.361 C 1134.884 1275.507, 1151.116 1265.928, 1156.219 1263.117 C 1158.265 1261.990, 1162.990 1259.396, 1166.719 1257.352 C 1170.449 1255.308, 1175.841 1252.142, 1178.702 1250.318 C 1181.563 1248.493, 1184.101 1247, 1184.342 1247 C 1184.583 1247, 1190.926 1243.400, 1198.438 1239 C 1205.950 1234.600, 1212.277 1231, 1212.496 1231 C 1212.716 1231, 1219.332 1227.109, 1227.198 1222.354 C 1235.064 1217.598, 1248.825 1209.511, 1257.777 1204.383 C 1279.600 1191.882, 1282.760 1189.623, 1283.891 1185.715 C 1284.448 1183.791, 1284.758 1129.863, 1284.661 1051.422 L 1284.500 920.344 1281.867 916.922 C 1280.419 915.040, 1276.594 911.972, 1273.367 910.104 C 1270.140 908.236, 1263.860 904.533, 1259.410 901.874 C 1251.419 897.100, 1245.334 893.627, 1215 876.525 C 1206.475 871.719, 1192.075 863.390, 1183 858.016 C 1173.925 852.642, 1162 845.660, 1156.500 842.499 C 1151 839.339, 1139.075 832.379, 1130 827.033 C 1068.418 790.756, 1052.838 781.928, 1050.667 782.083 C 1050.025 782.129, 1038.025 788.832, 1024 796.978 M 469.257 854.235 C 468.700 854.931, 467.996 856.400, 467.692 857.500 C 466.856 860.527, 464.861 1160.842, 464.601 1322.727 L 464.500 1385.954 467.500 1388.890 C 469.150 1390.505, 474.100 1393.825, 478.500 1396.268 C 482.900 1398.711, 495.500 1405.882, 506.500 1412.204 C 517.500 1418.527, 528.638 1424.892, 531.250 1426.350 C 543.354 1433.103, 546.102 1434.659, 555 1439.795 C 560.225 1442.812, 566.119 1446.229, 568.098 1447.390 C 570.077 1448.550, 576.827 1452.377, 583.098 1455.894 C 589.369 1459.411, 597.875 1464.240, 602 1466.627 C 618.557 1476.206, 684.029 1513.369, 715 1530.767 C 716.925 1531.848, 725.700 1536.911, 734.500 1542.017 C 743.300 1547.123, 755.900 1554.318, 762.500 1558.005 C 769.100 1561.693, 780.054 1567.925, 786.843 1571.855 C 793.631 1575.785, 799.327 1579, 799.500 1579 C 799.673 1579, 804.243 1581.626, 809.657 1584.836 C 815.071 1588.045, 829.761 1596.393, 842.301 1603.387 C 854.842 1610.381, 873.967 1621.190, 884.801 1627.408 C 917.322 1646.072, 939.177 1658.521, 945 1661.698 C 948.025 1663.348, 954.325 1666.949, 959 1669.699 C 963.675 1672.450, 969.975 1676.063, 973 1677.729 C 979.283 1681.189, 997.546 1691.530, 1003.500 1694.999 C 1036.130 1714.010, 1039.606 1715.212, 1048 1710.392 C 1052.804 1707.634, 1058.096 1704.634, 1065.742 1700.333 C 1068.350 1698.866, 1072.829 1696.166, 1075.694 1694.333 C 1078.560 1692.500, 1081.146 1691, 1081.442 1691 C 1081.738 1691, 1085.139 1688.975, 1089 1686.500 C 1092.861 1684.025, 1096.215 1682, 1096.452 1682 C 1096.690 1682, 1099.723 1680.277, 1103.192 1678.171 C 1112.212 1672.696, 1120.873 1667.570, 1125.500 1664.967 C 1127.700 1663.729, 1130.708 1661.993, 1132.185 1661.108 C 1139.109 1656.961, 1152.995 1648.923, 1157.500 1646.454 C 1160.250 1644.947, 1163.694 1642.878, 1165.154 1641.857 C 1166.614 1640.836, 1168.040 1640, 1168.322 1640 C 1168.604 1640, 1172.260 1637.975, 1176.446 1635.500 C 1180.632 1633.025, 1184.291 1631, 1184.577 1631 C 1184.862 1631, 1187.558 1629.425, 1190.567 1627.500 C 1193.577 1625.575, 1196.202 1624, 1196.401 1624 C 1196.600 1624, 1203.004 1620.359, 1210.631 1615.908 C 1223.640 1608.318, 1230.796 1604.194, 1235.500 1601.578 C 1236.600 1600.966, 1238.625 1599.752, 1240 1598.880 C 1241.375 1598.009, 1251.500 1592.006, 1262.500 1585.540 C 1273.500 1579.075, 1285.775 1571.809, 1289.777 1569.393 C 1293.779 1566.977, 1297.254 1565, 1297.498 1565 C 1297.742 1565, 1301.443 1562.917, 1305.721 1560.370 C 1310 1557.824, 1315.525 1554.600, 1318 1553.206 C 1320.475 1551.812, 1324.075 1549.771, 1326 1548.672 C 1327.925 1547.573, 1330.774 1545.959, 1332.332 1545.087 C 1333.889 1544.214, 1335.914 1543.042, 1336.832 1542.483 C 1341.289 1539.766, 1357.962 1529.953, 1361.500 1527.965 C 1363.700 1526.728, 1366.850 1524.874, 1368.500 1523.844 C 1370.150 1522.815, 1372.287 1521.701, 1373.250 1521.369 C 1374.213 1521.038, 1375 1520.369, 1375 1519.883 C 1375 1519.398, 1375.441 1519, 1375.981 1519 C 1376.520 1519, 1379.332 1517.495, 1382.231 1515.655 C 1385.129 1513.815, 1389.750 1511.181, 1392.500 1509.801 C 1397.457 1507.313, 1402.721 1504.389, 1408.500 1500.912 C 1411.894 1498.870, 1413.984 1497.690, 1422.500 1493.008 C 1435.268 1485.987, 1449.640 1477.574, 1452.683 1475.338 C 1454.434 1474.052, 1456.117 1473, 1456.423 1473 C 1456.729 1473, 1460.061 1471.025, 1463.827 1468.611 C 1467.594 1466.197, 1474.572 1462.149, 1479.334 1459.617 C 1484.097 1457.084, 1493.732 1451.568, 1500.747 1447.359 C 1507.761 1443.150, 1515.525 1438.583, 1518 1437.210 C 1520.475 1435.837, 1523.625 1433.940, 1525 1432.993 C 1526.375 1432.046, 1530.425 1429.690, 1534 1427.758 C 1543.056 1422.861, 1560.195 1413.219, 1562 1412.005 C 1562.825 1411.449, 1564.400 1410.596, 1565.500 1410.109 C 1566.600 1409.622, 1569.908 1407.598, 1572.850 1405.611 C 1575.793 1403.625, 1578.606 1402, 1579.100 1402 C 1579.595 1402, 1580 1401.618, 1580 1401.152 C 1580 1400.685, 1581.688 1399.584, 1583.750 1398.705 C 1592.674 1394.902, 1616 1381.289, 1616 1379.885 C 1616 1379.398, 1616.563 1379.112, 1617.250 1379.250 C 1617.938 1379.387, 1618.387 1378.938, 1618.250 1378.250 C 1618.112 1377.563, 1618.900 1377, 1620 1377 C 1624.484 1377, 1620.117 1370.186, 1614 1367.638 C 1612.075 1366.837, 1608.700 1364.742, 1606.500 1362.983 C 1604.300 1361.224, 1601.487 1359.395, 1600.250 1358.917 C 1599.013 1358.440, 1598 1357.588, 1598 1357.025 C 1598 1356.461, 1597.520 1356, 1596.933 1356 C 1596.347 1356, 1594.392 1354.875, 1592.589 1353.500 C 1590.786 1352.125, 1589.011 1351, 1588.644 1351 C 1588.277 1351, 1582.007 1347.287, 1574.711 1342.750 C 1567.414 1338.213, 1560.557 1333.968, 1559.472 1333.317 C 1558.388 1332.666, 1554.075 1330.078, 1549.888 1327.567 C 1545.701 1325.055, 1542.030 1323, 1541.729 1323 C 1541.429 1323, 1533.829 1318.661, 1524.841 1313.357 C 1515.854 1308.053, 1506.700 1302.728, 1504.500 1301.523 C 1502.300 1300.318, 1494.200 1295.591, 1486.500 1291.018 C 1478.800 1286.444, 1470.700 1281.701, 1468.500 1280.476 C 1461.893 1276.798, 1450.103 1269.913, 1441.500 1264.710 C 1440.400 1264.044, 1437.445 1262.097, 1434.933 1260.383 C 1426.099 1254.354, 1427.665 1254.161, 1412.343 1263.162 C 1404.729 1267.634, 1396.925 1272.139, 1395 1273.173 C 1387.326 1277.294, 1378.164 1282.559, 1376.869 1283.592 C 1375.144 1284.968, 1347.101 1301.457, 1323.500 1314.973 C 1313.600 1320.643, 1298.300 1329.421, 1289.500 1334.481 C 1280.700 1339.540, 1267.689 1347.015, 1260.586 1351.090 C 1253.483 1355.166, 1246.058 1359.490, 1244.086 1360.700 C 1242.114 1361.910, 1234.200 1366.378, 1226.500 1370.629 C 1218.800 1374.880, 1210.700 1379.395, 1208.500 1380.662 C 1206.300 1381.929, 1202.633 1383.986, 1200.350 1385.233 C 1195.783 1387.728, 1177.950 1398.190, 1172.166 1401.767 C 1170.150 1403.014, 1167.600 1404.469, 1166.500 1405 C 1165.400 1405.531, 1162.825 1406.986, 1160.778 1408.233 C 1155.886 1411.212, 1114.740 1435.068, 1111.160 1437 C 1107.973 1438.720, 1087.458 1450.550, 1082.689 1453.418 C 1080.935 1454.473, 1077.873 1456.273, 1075.884 1457.418 C 1073.895 1458.563, 1067.686 1462.200, 1062.086 1465.500 C 1039.893 1478.579, 1043.508 1478.861, 1015 1461.825 C 1005.375 1456.074, 991.200 1447.833, 983.500 1443.512 C 975.800 1439.191, 961.175 1430.849, 951 1424.974 C 940.825 1419.099, 920.800 1407.642, 906.500 1399.515 C 892.200 1391.387, 876.450 1382.369, 871.500 1379.473 C 866.550 1376.578, 858.900 1372.198, 854.500 1369.740 C 850.100 1367.283, 835.925 1359.217, 823 1351.818 C 810.075 1344.418, 796.575 1336.785, 793 1334.855 C 789.425 1332.926, 783.125 1329.313, 779 1326.827 C 767.437 1319.858, 715.409 1290.330, 697.251 1280.431 C 679.162 1270.570, 674.574 1266.861, 673.513 1261.243 C 673.125 1259.184, 673.074 1238.150, 673.401 1214.500 C 674.081 1165.330, 674.876 1043.680, 675.247 932.214 C 675.455 869.394, 675.264 855.782, 674.162 855.101 C 671.370 853.374, 652.792 853.023, 562.885 852.997 C 489.384 852.976, 470.061 853.231, 469.257 854.235" stroke="none" fill="#F5A623" fill-rule="evenodd"/>
</svg>